<svg id="Jellyfish" xmlns="http://www.w3.org/2000/svg" viewBox="0 0 1024 1024"><defs><style>.cls-1{fill:#1d1d1b;stroke:#1d1d1b;stroke-miterlimit:10;stroke-width:4px;}</style></defs><title>Jellyfish App Icons</title><path class="cls-1" d="M522,166.63c-152,0-275.24,123.23-275.24,275.24,0,12.6-1.69,51.56,20,64.74,15,9.08,83.8-52.61,127.8-48.61,1.24,0.11,3,.57,2.45,1.1-19.38,19.9-88.13,42.78-78.38,45.24,19.24,4.84,64.51,7.69,115.67-17.67,12-5.93,2.57,32.87,15.36,37.61-4,4.39-7.58,7.89-10.24,10.48-14.33,14-17.79,13.16-31.52,28.2-19.95,21.86-29.16,41.65-31.52,46.92-4.73,10.55-11.16,25.26-12.55,45.67-0.6,8.84-1.58,25.86,6.14,45.92a71.2,71.2,0,0,0,4.15,8.91,116.65,116.65,0,0,0-8.28,35.66c-0.6,8.84-1.58,25.86,6.14,45.92,5.68,14.75,14.82,24.81,33.12,44.93,5.76,6.33,14.06,14.89,27.24,18.72,3.89,1.13,11.31,3.28,15,0,5-4.47-1.45-17-3.2-20.47-13-25.61-33.77-24.85-48.07-43.93-14.47-19.29-11.73-44.75-7.72-61.36,4.14,4.82,9,10.17,14.79,16.54s14.06,14.89,27.24,18.72c3.89,1.13,11.31,3.28,15,0,5-4.47-1.45-17-3.2-20.47-12.08-23.8-30.87-24.84-44.94-40.17,6.59-13.59,15.4-24,24-34.06,14.47-17,18.33-15.9,38.19-36.19,18.76-19.17,32.34-33,41.13-54.16,9.66-23.21,8.2-42.37,12.29-42.43,3.22,0,4,11.84,10.15,28.45,8.87,24.11,22.38,40.45,33.92,54.41,12.62,15.27,12.59,11.57,35.79,36.44,18.52,19.85,27.94,30.07,35.79,43.93l2,3.62a55.81,55.81,0,0,1-8.33,9.71c-10,9.23-23.15,14.51-41.4,33.2-3.26,3.34-8.06,8.52-6.41,12.23,2.5,5.61,18,4.14,19.5,4,12.7-1.3,22.59-7.47,29.65-13.23a86,86,0,0,0,18.2-20.58,73.84,73.84,0,0,1,2.78,18c0.19,6.42,1.11,37.13-20.3,56.91-10,9.23-23.15,14.51-41.4,33.2-3.26,3.34-8.06,8.52-6.41,12.23,2.5,5.61,18,4.14,19.5,4,12.7-1.3,22.59-7.47,29.65-13.23,19.75-16.12,27-36.91,30.71-48.17,3.26-9.78,11.49-35.65,4-67.89a114.7,114.7,0,0,0-6.78-20.34c0.27-.79.52-1.55,0.76-2.27,3.26-9.78,11.49-35.65,4-67.89-5.93-25.54-18.81-42.47-29.65-56.41-21.35-27.46-30.18-24.24-54.48-51.91A269.76,269.76,0,0,1,557,504.93C571.69,517.48,588.67,530.63,601,527c15.17-4.46-9.34-47.31-11.33-52-5.75-13.5,106.75,60,98.92,39.83-10.24-26.37-84.92-59.83-64.25-63.5,32.91-5.84,119,64,152.81,55.15,15-3.94,20.08-28.15,20.08-64.62C797.25,289.85,674,166.63,522,166.63ZM486.9,558.12c-12.72,34.84-35.41,57.4-45.4,67.14-14.33,14-17.79,13.16-31.52,28.2a193.82,193.82,0,0,0-23.72,32c-8-25,1.88-53.28,4.62-61.07,6.67-19,17.66-31.91,28.31-44.43,14.47-17,18.33-15.9,38.19-36.19,12.62-12.89,22.88-23.39,30.92-35.3,2.59-1.57,5.19-3.17,7.74-4.76C497.65,528,491,546.86,486.9,558.12Zm103.75,8.34c18.52,19.85,27.94,30.07,35.79,43.93,7.43,13.12,15.44,27.25,16,46.92a94.46,94.46,0,0,1-2.2,24.1c-3.25-4.66-6.55-8.94-9.68-13C609.23,641,600.4,644.19,576.1,616.52c-13.23-15.06-32.86-37.92-41.13-72.38-3-12.31-6.73-28.09-3.78-46.71,7.47,13,16,23.31,23.67,32.58C567.48,545.29,567.45,541.59,590.65,566.46Z"/></svg>